<svg width="40" height="40" viewBox="0 0 40 40" fill="none" xmlns="http://www.w3.org/2000/svg">
<path fill-rule="evenodd" clip-rule="evenodd" d="M14.3431 14.3431C14.7337 13.9526 15.3668 13.9526 15.7573 14.3431L20 18.5858L24.2426 14.3431C24.6332 13.9526 25.2663 13.9526 25.6568 14.3431C26.0474 14.7337 26.0474 15.3668 25.6568 15.7574L21.4142 20L25.6568 24.2426C26.0474 24.6332 26.0474 25.2663 25.6568 25.6569C25.2663 26.0474 24.6332 26.0474 24.2426 25.6569L20 21.4142L15.7573 25.6569C15.3668 26.0474 14.7337 26.0474 14.3431 25.6569C13.9526 25.2663 13.9526 24.6332 14.3431 24.2426L18.5858 20L14.3431 15.7574C13.9526 15.3668 13.9526 14.7337 14.3431 14.3431Z" fill="black"/>
</svg>
