<?xml version="1.0" encoding="UTF-8"?> <!-- Generator: Adobe Illustrator 23.0.1, SVG Export Plug-In . SVG Version: 6.00 Build 0) --> <svg xmlns="http://www.w3.org/2000/svg" xmlns:xlink="http://www.w3.org/1999/xlink" id="Layer_1" x="0px" y="0px" viewBox="0 0 259.83 40.61" xml:space="preserve"> <title>logoPRO4SEC</title> <path fill="#ECF0F1" d="M34.47,8.22l-6-8.18H0.62v31.09l8-4.58V17.7h18.81L34.47,8.22z M8.65,5.97h15.47l2.11,2.77l-2.13,2.94H8.65 V5.97z"></path> <path fill="#ECF0F1" d="M111.31,20.59l-6,6.05H83.13l-6-6.05V6.09l6-6h22.14l6,6L111.31,20.59z M103.31,20.69V5.99H85.12v14.7 L103.31,20.69z"></path> <path fill="#BEC4C8" d="M139.92,0.04h8v26.6h-8v-10.6h-22.09l-4-5.41L139.92,0.04z M139.92,10.63V5.54l-12.55,5.09H139.92z"></path> <path fill="#ECF0F1" d="M189.02,18.48l-6,8.16h-30.87l5.9-5.95h20.23l1.9-2.2l-1.92-2.4H158l-5.85-7.87l6-8.18h30.87l-5.95,5.95 h-20.15l-2,2.28l2,2.41h20.29L189.02,18.48z"></path> <path fill="#ECF0F1" d="M259.84,0.04l-5.92,5.95h-17.84v14.7h22.84l-6,5.95H234.1l-6-5.95V6.11l6-6.07L259.84,0.04z"></path> <path fill="#ECF0F1" d="M49.53,17.8H62.1l2.42,2.35v6.3l8,4.63v-12l-4.6-4.66l4.6-6.17l-6-8.21H38.73v11.48L49.53,17.8z M46.75,5.99 H62.2l2.09,2.81l-2.15,3H46.75V5.99z"></path> <polygon fill="#ECF0F1" points="38.73,18.36 38.73,26.64 46.75,26.64 46.75,22.99 "></polygon> <polygon fill="#ECF0F1" points="201.68,16.09 216.15,16.09 221.56,10.68 201.68,10.68 201.68,6 219.53,6 225.44,0.04 200.31,0.04 193.66,6.92 193.66,26.64 218.54,26.64 224.49,20.69 201.68,20.69 "></polygon> <g> <path fill="#BEC4C8" d="M2.56,38.85H0.62l1.12-4.62h1.93L2.56,38.85z"></path> <path fill="#BEC4C8" d="M10.11,38.93c-0.13,0-0.25-0.02-0.36-0.04c-0.11-0.03-0.23-0.1-0.36-0.2l-3.24-2.54l-0.65,2.72H3.74 l0.91-3.83c0.04-0.15,0.1-0.28,0.18-0.39c0.08-0.11,0.18-0.2,0.3-0.27c0.12-0.07,0.24-0.12,0.38-0.15 c0.14-0.03,0.28-0.05,0.42-0.05c0.12,0,0.24,0.02,0.36,0.04c0.12,0.03,0.24,0.1,0.37,0.2l3.24,2.54l0.66-2.72h1.76l-0.93,3.83 c-0.04,0.15-0.1,0.28-0.18,0.39c-0.08,0.11-0.18,0.2-0.3,0.27c-0.11,0.07-0.24,0.12-0.38,0.16C10.39,38.91,10.25,38.93,10.11,38.93 z"></path> <path fill="#BEC4C8" d="M18.68,38.93c-0.13,0-0.25-0.02-0.36-0.04c-0.11-0.03-0.23-0.1-0.36-0.2l-3.24-2.54l-0.65,2.72h-1.76 l0.91-3.83c0.04-0.15,0.1-0.28,0.18-0.39c0.08-0.11,0.18-0.2,0.3-0.27c0.12-0.07,0.24-0.12,0.38-0.15 c0.14-0.03,0.28-0.05,0.42-0.05c0.12,0,0.24,0.02,0.36,0.04c0.12,0.03,0.24,0.1,0.37,0.2l3.24,2.54l0.66-2.72h1.76l-0.93,3.83 c-0.04,0.15-0.1,0.28-0.18,0.39c-0.08,0.11-0.18,0.2-0.3,0.27c-0.11,0.07-0.24,0.12-0.38,0.16C18.96,38.91,18.82,38.93,18.68,38.93 z"></path> </g> <g> <path fill="#BEC4C8" d="M26.42,34.15c1.36,0,2.38,0.16,3.06,0.47c0.68,0.32,1.02,0.81,1.02,1.48c0,0.95-0.43,1.66-1.29,2.12 c-0.86,0.47-2.17,0.7-3.93,0.7c-1.36,0-2.38-0.16-3.06-0.48c-0.68-0.32-1.02-0.81-1.02-1.49c0-0.95,0.43-1.65,1.29-2.12 C23.36,34.38,24.67,34.15,26.42,34.15z M25.56,37.72c0.63,0,1.14-0.02,1.53-0.06c0.39-0.04,0.69-0.12,0.91-0.23 c0.22-0.11,0.36-0.26,0.44-0.45c0.07-0.19,0.11-0.43,0.11-0.73c0-0.18-0.05-0.33-0.14-0.45c-0.09-0.12-0.23-0.21-0.43-0.28 s-0.45-0.11-0.75-0.13c-0.31-0.02-0.67-0.03-1.1-0.03c-0.63,0-1.14,0.02-1.53,0.06c-0.39,0.04-0.69,0.12-0.91,0.23 c-0.22,0.11-0.36,0.26-0.44,0.45c-0.08,0.19-0.11,0.43-0.11,0.73c0,0.19,0.05,0.34,0.14,0.46s0.24,0.21,0.43,0.27 c0.19,0.07,0.44,0.11,0.75,0.13C24.77,37.71,25.14,37.72,25.56,37.72z"></path> </g> <g> <path fill="#BEC4C8" d="M32.95,34.23l2.09,3.07l3.68-3.07h2.3l-5.03,4.18c-0.16,0.13-0.36,0.25-0.58,0.36 c-0.23,0.11-0.49,0.16-0.8,0.16c-0.29,0-0.53-0.05-0.7-0.15c-0.17-0.1-0.31-0.22-0.42-0.37l-2.92-4.18H32.95z"></path> </g> <g> <path fill="#BEC4C8" d="M40.83,38.85l1.46-1.19h1.57c0.19,0,0.39,0,0.59,0s0.38,0,0.53,0.01c-0.07-0.08-0.15-0.19-0.23-0.31 S44.57,37.12,44.5,37l-0.83-1.22l-3.68,3.07h-2.3l5.03-4.18c0.16-0.13,0.36-0.25,0.58-0.36c0.23-0.11,0.49-0.16,0.8-0.16 c0.29,0,0.53,0.05,0.7,0.15c0.17,0.1,0.31,0.22,0.42,0.37l2.92,4.18H40.83z"></path> </g> <g> <path fill="#BEC4C8" d="M55.73,34.23l-1.56,1.2h-2.23l-0.83,3.42h-1.94l0.82-3.42h-2.94l1.56-1.2H55.73z"></path> <path fill="#BEC4C8" d="M57.17,38.85h-1.94l1.12-4.62h1.93L57.17,38.85z"></path> <path fill="#BEC4C8" d="M61.38,34.23l2.09,3.07l3.68-3.07h2.3l-5.03,4.18c-0.16,0.13-0.36,0.25-0.58,0.36 c-0.23,0.11-0.49,0.16-0.8,0.16c-0.29,0-0.53-0.05-0.7-0.15c-0.17-0.1-0.31-0.22-0.42-0.37l-2.92-4.18H61.38z"></path> <path fill="#BEC4C8" d="M76.61,37.66l-1.54,1.19h-6.04l1.12-4.62h7.26l-1.55,1.2h-4.06l-0.13,0.55h4.96l-1.35,1.05h-3.86 l-0.15,0.63H76.61z"></path> <path fill="#BEC4C8" d="M87.05,36.07c0.68,0,1.2,0.09,1.55,0.27c0.35,0.18,0.53,0.44,0.53,0.78c0,0.25-0.06,0.48-0.17,0.69 c-0.11,0.21-0.29,0.39-0.54,0.55s-0.57,0.27-0.96,0.36s-0.86,0.13-1.42,0.13h-5.84l1.53-1.19h4.75c0.26,0,0.45-0.03,0.57-0.1 c0.12-0.06,0.18-0.16,0.18-0.3c0-0.18-0.2-0.28-0.59-0.28h-3.42c-0.71,0-1.23-0.1-1.57-0.3c-0.33-0.2-0.5-0.47-0.5-0.81 c0-0.23,0.06-0.45,0.17-0.65c0.11-0.2,0.29-0.38,0.54-0.53s0.56-0.27,0.95-0.35s0.86-0.13,1.41-0.13h5.45l-1.54,1.2h-4.35 c-0.26,0-0.45,0.03-0.57,0.09c-0.12,0.06-0.18,0.16-0.18,0.29c0,0.17,0.2,0.26,0.6,0.26H87.05z"></path> <path fill="#BEC4C8" d="M98.23,36.83c-0.34,1.4-1.81,2.09-4.41,2.09c-1.34,0-2.33-0.14-2.95-0.42c-0.62-0.28-0.93-0.69-0.93-1.24 c0-0.14,0.02-0.28,0.06-0.44l0.63-2.61h1.94l-0.64,2.61c-0.02,0.1-0.03,0.18-0.03,0.26c0,0.12,0.03,0.22,0.1,0.3 s0.19,0.15,0.36,0.2s0.39,0.09,0.68,0.11c0.28,0.02,0.64,0.04,1.07,0.04c0.38,0,0.69-0.02,0.95-0.05s0.47-0.08,0.64-0.16 c0.17-0.07,0.3-0.17,0.39-0.28c0.09-0.11,0.15-0.25,0.19-0.41l0.63-2.61h1.95L98.23,36.83z"></path> </g> <g> <path fill="#BEC4C8" d="M107.74,38.85h-2.6l-1.11-1.22h-2.98l-0.29,1.22h-1.94l0.56-2.36h5.46c0.16,0,0.32-0.01,0.46-0.04 c0.15-0.03,0.27-0.07,0.38-0.12s0.2-0.11,0.26-0.19s0.1-0.16,0.1-0.25c0-0.15-0.08-0.27-0.25-0.34s-0.4-0.11-0.7-0.11h-5.46 l1.56-1.2h4.03c0.33,0,0.66,0.02,1,0.06c0.34,0.04,0.65,0.12,0.93,0.22c0.28,0.11,0.5,0.25,0.68,0.43 c0.17,0.18,0.26,0.41,0.26,0.68c0,0.21-0.05,0.41-0.15,0.59c-0.1,0.19-0.23,0.36-0.41,0.51c-0.18,0.15-0.39,0.28-0.64,0.39 c-0.25,0.11-0.52,0.18-0.83,0.22c0.09,0.06,0.19,0.14,0.3,0.23s0.25,0.22,0.43,0.38L107.74,38.85z"></path> </g> <g> <path fill="#BEC4C8" d="M110.75,34.23l2.09,3.07l3.68-3.07h2.3l-5.03,4.18c-0.16,0.13-0.36,0.25-0.58,0.36 c-0.23,0.11-0.49,0.16-0.8,0.16c-0.29,0-0.53-0.05-0.7-0.15c-0.17-0.1-0.31-0.22-0.42-0.37l-2.92-4.18H110.75z"></path> <path fill="#BEC4C8" d="M125.97,37.66l-1.54,1.19h-6.04l1.12-4.62h7.26l-1.55,1.2h-4.06l-0.13,0.55h4.96l-1.35,1.05h-3.86 l-0.15,0.63H125.97z"></path> <path fill="#BEC4C8" d="M128.31,38.85h-1.94l1.12-4.62h1.93L128.31,38.85z"></path> <path fill="#BEC4C8" d="M136.61,37.66l-1.55,1.19h-5.54l1.12-4.62h1.93l-0.83,3.43H136.61z"></path> </g> <g> <path fill="#BEC4C8" d="M144.06,37.66l-1.55,1.19h-5.54l1.12-4.62h1.93l-0.83,3.43H144.06z"></path> </g> <g> <path fill="#BEC4C8" d="M146.75,38.85l1.46-1.19h1.57c0.19,0,0.39,0,0.59,0s0.38,0,0.53,0.01c-0.07-0.08-0.15-0.19-0.23-0.31 c-0.09-0.13-0.17-0.25-0.24-0.36l-0.83-1.22l-3.68,3.07h-2.3l5.03-4.18c0.16-0.13,0.36-0.25,0.58-0.36 c0.22-0.11,0.49-0.16,0.8-0.16c0.29,0,0.53,0.05,0.7,0.15c0.17,0.1,0.31,0.22,0.42,0.37l2.92,4.18H146.75z"></path> <path fill="#BEC4C8" d="M161.08,38.93c-0.13,0-0.25-0.02-0.36-0.04c-0.11-0.03-0.23-0.1-0.36-0.2l-3.24-2.54l-0.65,2.72h-1.76 l0.91-3.83c0.04-0.15,0.1-0.28,0.18-0.39c0.08-0.11,0.18-0.2,0.3-0.27c0.12-0.07,0.24-0.12,0.38-0.15 c0.14-0.03,0.28-0.05,0.42-0.05c0.12,0,0.24,0.02,0.36,0.04c0.12,0.03,0.24,0.1,0.37,0.2l3.24,2.54l0.66-2.72h1.76l-0.93,3.83 c-0.04,0.15-0.1,0.28-0.18,0.39c-0.08,0.11-0.18,0.2-0.29,0.27s-0.24,0.12-0.38,0.16C161.35,38.91,161.22,38.93,161.08,38.93z"></path> <path fill="#BEC4C8" d="M171.57,37.66l-1.53,1.19h-3.15c-0.49,0-0.93-0.05-1.34-0.16s-0.75-0.25-1.03-0.43 c-0.29-0.18-0.5-0.4-0.66-0.65c-0.16-0.25-0.23-0.52-0.23-0.81c0-0.38,0.12-0.73,0.35-1.04c0.23-0.32,0.54-0.59,0.94-0.82 c0.39-0.23,0.86-0.41,1.39-0.53c0.53-0.13,1.1-0.19,1.7-0.19h4.4l-1.54,1.2h-3.15c-0.29,0-0.56,0.03-0.82,0.1 c-0.26,0.06-0.49,0.15-0.68,0.27c-0.19,0.12-0.35,0.25-0.46,0.4c-0.11,0.16-0.17,0.32-0.17,0.51c0,0.14,0.04,0.27,0.12,0.39 c0.08,0.12,0.19,0.22,0.33,0.3s0.31,0.15,0.5,0.19c0.19,0.05,0.41,0.07,0.65,0.07H171.57z"></path> <path fill="#BEC4C8" d="M179.54,37.66l-1.54,1.19h-6.04l1.12-4.62h7.26l-1.55,1.2h-4.06l-0.13,0.55h4.96l-1.35,1.05h-3.86 l-0.15,0.63H179.54z"></path> <path fill="#BEC4C8" d="M189.99,36.07c0.68,0,1.2,0.09,1.55,0.27c0.35,0.18,0.53,0.44,0.53,0.78c0,0.25-0.06,0.48-0.17,0.69 c-0.11,0.21-0.29,0.39-0.54,0.55s-0.57,0.27-0.96,0.36c-0.39,0.08-0.87,0.13-1.42,0.13h-5.84l1.53-1.19h4.75 c0.26,0,0.45-0.03,0.57-0.1c0.12-0.06,0.18-0.16,0.18-0.3c0-0.18-0.2-0.28-0.59-0.28h-3.42c-0.71,0-1.24-0.1-1.57-0.3 c-0.33-0.2-0.5-0.47-0.5-0.81c0-0.23,0.06-0.45,0.17-0.65s0.29-0.38,0.54-0.53s0.56-0.27,0.95-0.35s0.86-0.13,1.41-0.13h5.45 l-1.54,1.2h-4.35c-0.26,0-0.45,0.03-0.57,0.09c-0.12,0.06-0.18,0.16-0.18,0.29c0,0.17,0.2,0.26,0.6,0.26H189.99z"></path> <path fill="#BEC4C8" d="M198.06,34.15c1.36,0,2.38,0.16,3.06,0.47c0.68,0.32,1.02,0.81,1.02,1.48c0,0.95-0.43,1.66-1.29,2.12 c-0.86,0.47-2.17,0.7-3.93,0.7c-1.36,0-2.38-0.16-3.06-0.48c-0.68-0.32-1.02-0.81-1.02-1.49c0-0.95,0.43-1.65,1.29-2.12 C194.99,34.38,196.3,34.15,198.06,34.15z M197.19,37.72c0.63,0,1.14-0.02,1.53-0.06s0.69-0.12,0.91-0.23 c0.22-0.11,0.36-0.26,0.44-0.45s0.11-0.43,0.11-0.73c0-0.18-0.04-0.33-0.14-0.45s-0.23-0.21-0.43-0.28s-0.45-0.11-0.75-0.13 s-0.67-0.03-1.1-0.03c-0.63,0-1.14,0.02-1.53,0.06c-0.39,0.04-0.69,0.12-0.91,0.23s-0.36,0.26-0.44,0.45 c-0.08,0.19-0.11,0.43-0.11,0.73c0,0.19,0.05,0.34,0.14,0.46s0.24,0.21,0.43,0.27c0.19,0.07,0.44,0.11,0.75,0.13 C196.41,37.71,196.77,37.72,197.19,37.72z"></path> <path fill="#BEC4C8" d="M209.59,37.66l-1.55,1.19h-5.54l1.12-4.62h1.93l-0.83,3.43H209.59z"></path> <path fill="#BEC4C8" d="M218.58,36.83c-0.34,1.4-1.81,2.09-4.41,2.09c-1.34,0-2.33-0.14-2.95-0.42s-0.93-0.69-0.93-1.24 c0-0.14,0.02-0.28,0.06-0.44l0.63-2.61h1.94l-0.64,2.61c-0.02,0.1-0.03,0.18-0.03,0.26c0,0.12,0.03,0.22,0.1,0.3 c0.07,0.08,0.19,0.15,0.36,0.2c0.17,0.05,0.39,0.09,0.67,0.11c0.28,0.02,0.64,0.04,1.07,0.04c0.38,0,0.69-0.02,0.95-0.05 c0.26-0.03,0.47-0.08,0.64-0.16c0.17-0.07,0.3-0.17,0.39-0.28c0.09-0.11,0.15-0.25,0.19-0.41l0.63-2.61h1.95L218.58,36.83z"></path> <path fill="#BEC4C8" d="M228.11,34.23l-1.56,1.2h-2.23l-0.83,3.42h-1.94l0.82-3.42h-2.94l1.56-1.2H228.11z"></path> <path fill="#BEC4C8" d="M229.55,38.85h-1.94l1.12-4.62h1.93L229.55,38.85z"></path> <path fill="#BEC4C8" d="M236.28,34.15c1.36,0,2.38,0.16,3.06,0.47c0.68,0.32,1.02,0.81,1.02,1.48c0,0.95-0.43,1.66-1.29,2.12 c-0.86,0.47-2.17,0.7-3.93,0.7c-1.36,0-2.38-0.16-3.06-0.48c-0.68-0.32-1.02-0.81-1.02-1.49c0-0.95,0.43-1.65,1.29-2.12 C233.21,34.38,234.52,34.15,236.28,34.15z M235.41,37.72c0.63,0,1.14-0.02,1.53-0.06s0.69-0.12,0.91-0.23 c0.22-0.11,0.36-0.26,0.44-0.45s0.11-0.43,0.11-0.73c0-0.18-0.04-0.33-0.14-0.45s-0.23-0.21-0.43-0.28s-0.45-0.11-0.75-0.13 s-0.67-0.03-1.1-0.03c-0.63,0-1.14,0.02-1.53,0.06c-0.39,0.04-0.69,0.12-0.91,0.23s-0.36,0.26-0.44,0.45 c-0.08,0.19-0.11,0.43-0.11,0.73c0,0.19,0.05,0.34,0.14,0.46s0.24,0.21,0.43,0.27c0.19,0.07,0.44,0.11,0.75,0.13 C234.62,37.71,234.99,37.72,235.41,37.72z"></path> <path fill="#BEC4C8" d="M247.06,38.93c-0.13,0-0.25-0.02-0.36-0.04c-0.11-0.03-0.23-0.1-0.36-0.2l-3.24-2.54l-0.65,2.72h-1.76 l0.91-3.83c0.04-0.15,0.1-0.28,0.18-0.39c0.08-0.11,0.18-0.2,0.3-0.27c0.12-0.07,0.24-0.12,0.38-0.15 c0.14-0.03,0.28-0.05,0.42-0.05c0.12,0,0.24,0.02,0.36,0.04c0.12,0.03,0.24,0.1,0.37,0.2l3.24,2.54l0.66-2.72h1.76l-0.93,3.83 c-0.04,0.15-0.1,0.28-0.18,0.39c-0.08,0.11-0.18,0.2-0.29,0.27s-0.24,0.12-0.38,0.16C247.34,38.91,247.2,38.93,247.06,38.93z"></path> <path fill="#BEC4C8" d="M255.77,36.07c0.68,0,1.2,0.09,1.55,0.27c0.35,0.18,0.53,0.44,0.53,0.78c0,0.25-0.06,0.48-0.17,0.69 c-0.11,0.21-0.29,0.39-0.54,0.55s-0.57,0.27-0.96,0.36c-0.39,0.08-0.87,0.13-1.42,0.13h-5.84l1.53-1.19h4.75 c0.26,0,0.45-0.03,0.57-0.1c0.12-0.06,0.18-0.16,0.18-0.3c0-0.18-0.2-0.28-0.59-0.28h-3.42c-0.71,0-1.24-0.1-1.57-0.3 c-0.33-0.2-0.5-0.47-0.5-0.81c0-0.23,0.06-0.45,0.17-0.65s0.29-0.38,0.54-0.53s0.56-0.27,0.95-0.35s0.86-0.13,1.41-0.13h5.45 l-1.54,1.2h-4.35c-0.26,0-0.45,0.03-0.57,0.09c-0.12,0.06-0.18,0.16-0.18,0.29c0,0.17,0.2,0.26,0.6,0.26H255.77z"></path> </g> </svg> 